<?xml version="1.0" encoding="UTF-8" standalone="no"?>
<svg
   xmlns:dc="http://purl.org/dc/elements/1.1/"
   xmlns:cc="http://creativecommons.org/ns#"
   xmlns:rdf="http://www.w3.org/1999/02/22-rdf-syntax-ns#"
   xmlns:svg="http://www.w3.org/2000/svg"
   xmlns="http://www.w3.org/2000/svg"
   xmlns:xlink="http://www.w3.org/1999/xlink"
   id="svg2"
   version="1.1"
   viewBox="0 0 32 32"
   height="32"
   width="32">
  <metadata
     id="metadata77">
    <rdf:RDF>
      <cc:Work
         rdf:about="">
        <dc:format>image/svg+xml</dc:format>
        <dc:type
           rdf:resource="http://purl.org/dc/dcmitype/StillImage" />
        <dc:title>logo_conda_RGB_inkscape</dc:title>
      </cc:Work>
    </rdf:RDF>
  </metadata>
  <!-- Generator: Sketch 3.8.3 (29802) - http://www.bohemiancoding.com/sketch -->
  <title
     id="title4">logo_conda_RGB_inkscape</title>
  <desc
     id="desc6">Created with Sketch.</desc>
  <defs
     id="defs8">
    <path
       id="path-1"
       d="m 12.125266,1.9631383 c 3.69532,9.8156917 16.628937,22.8647877 32.565001,22.8647877 8.776383,0 16.744416,-3.117925 22.980267,-8.429947 0.461915,-0.230957 4.734628,4.619149 6.466809,6.466809 0.346436,0.461915 0.346436,0.577393 0.346436,0.577393 C 53.46665,41.803299 17.783724,39.147288 0.92382981,7.3906385 2.3095745,2.7714894 4.2727129,0 4.2727129,0 8.7763832,1.8476596 12.125266,1.9631383 12.125266,1.9631383 l 0,0 z" />
    <rect
       height="103.93085"
       width="90.535324"
       y="0.57739365"
       x="0.46191722"
       id="path-3" />
  </defs>
  <g
     transform="translate(0,-71)"
     style="fill:none;fill-rule:evenodd;stroke:none;stroke-width:1"
     id="Page-1">
    <g
       transform="translate(-2,-3)"
       id="logo_conda_RGB_inkscape">
      <g
         id="g3588">
        <g
           transform="matrix(0.28251619,0,0,0.28279172,4.6681937,74.635087)"
           id="g19-Clipped">
          <g
             transform="translate(2.309575,2.309575)"
             id="g19">
            <path
               style="fill:#ffffff;stroke:none;stroke-width:0.88447386;stroke-opacity:1"
               id="path21"
               d="m 24.366011,55.429789 c -1.963138,-0.461915 -6.004894,-1.732181 -10.277606,-4.388192 4.619149,-2.65601 8.776383,-3.117925 10.277606,-3.233404 0.230958,-1.732181 0.577394,-3.348883 1.039309,-4.965585 -1.501224,-1.154788 -4.388192,-3.464362 -7.044203,-6.928724 4.272713,-0.346436 7.968033,0.230957 9.815692,0.577394 0.92383,-1.616703 2.078617,-3.117926 3.464362,-4.619149 -0.808351,-1.385745 -2.309574,-4.157235 -3.233404,-7.968033 3.464362,1.501224 6.004893,3.348883 7.275159,4.388192 1.732181,-1.270266 3.579841,-2.309575 5.427501,-3.233404 0,-1.616703 0,-4.503671 0.692872,-7.968033 2.425053,2.540532 3.926277,4.965586 4.50367,6.235852 2.309575,-0.461915 4.734628,-0.692873 7.27516,-0.577394 0.461915,-1.270266 1.385745,-3.464362 3.002447,-6.120372 1.154787,3.002446 1.616702,5.4275 1.84766,6.697766 2.540532,0.577393 4.965585,1.385744 7.27516,2.540532 3.695319,-3.117926 7.15968,-4.503671 11.201436,-5.542979 0,-5.081064 -0.692872,-10.046649 -3.348883,-15.0122346 C 70.903938,4.0417554 68.01697,3.1179256 65.130002,2.4250533 62.127555,4.0417554 59.702502,5.8894151 57.623885,7.8525534 56.122661,5.5429789 54.159523,3.1179256 51.73447,0.92382981 c -1.154788,0 -3.348883,-0.11547872 -7.621596,0.57739359 C 42.034256,4.1572342 40.533033,6.8132449 39.378246,9.4692556 36.837714,7.8525534 33.719788,6.4668087 30.139948,5.5429789 28.061331,6.4668087 26.098192,7.5061172 24.135054,8.6609045 23.442181,12.009788 23.211224,15.127713 23.326703,18.014681 20.324256,17.437288 16.859894,17.20633 13.164575,17.668245 11.894309,19.05399 10.624043,20.555213 9.4692556,22.171915 9.700213,26.32915 10.739522,29.90899 12.240745,33.026916 8.7763832,33.835267 5.1965427,35.33649 1.8476596,37.646065 1.3857447,39.147288 1.0393085,40.76399 0.69287236,42.265214 2.7714894,45.845055 5.4275001,48.732023 8.0835109,50.926118 5.4275001,53.120214 2.7714894,56.122661 0.34643618,60.164417 0.57739363,61.896597 0.92382981,63.5133 1.3857447,65.130002 l 0.1154787,0 C 4.2727129,59.356065 7.621596,55.545268 10.855,53.004736 c 6.582288,4.50367 13.049096,5.773936 13.972926,5.889415 -0.115479,-1.039309 -0.346436,-2.078618 -0.461915,-3.464362 l 0,0 z M 68.247928,6.35133 c 2.309574,3.4643618 3.117925,7.737075 3.348883,10.162128 -2.078618,0.808351 -5.312022,2.309574 -8.429948,4.850106 -0.461914,-2.194095 -1.270266,-5.4275 -3.002446,-9.122819 2.078617,-2.078617 4.734627,-4.1572341 8.083511,-5.889415 l 0,0 z M 48.03915,4.0417554 c 2.77149,2.3095746 4.850107,5.081064 6.35133,7.6215956 -2.425053,3.117926 -3.926276,6.120373 -4.734627,8.19899 -1.154788,-2.078617 -3.233405,-4.850106 -6.351331,-7.621596 1.039309,-2.6560107 2.540533,-5.5429789 4.734628,-8.1989896 l 0,0 z M 28.292288,9.700213 c 4.041755,0.808351 7.159681,2.309575 9.815692,4.157234 -1.154788,4.041756 -1.385745,7.621596 -1.385745,9.931171 -2.078617,-1.501224 -5.081064,-3.348883 -9.007341,-4.619149 -0.346436,-2.77149 -0.230957,-6.004894 0.577394,-9.469256 l 0,0 z m -4.272713,12.70266 c 0.808351,4.50367 2.309575,7.968032 3.464362,10.162128 C 24.827926,32.103086 20.786171,31.75665 16.2825,32.334043 14.781277,29.447075 13.62649,25.867235 13.395532,21.825479 c 3.926277,-0.461915 7.506118,-0.115478 10.624043,0.577394 l 0,0 z M 3.810798,40.879469 C 7.159681,38.454416 10.855,37.18415 14.203883,36.491278 c 2.425054,3.810798 5.4275,6.582287 7.506118,8.314468 C 19.05399,45.267661 15.127713,46.306969 10.970479,48.96298 8.4299471,46.999842 5.8894151,44.343831 3.810798,40.879469 l 0,0 z" />
            <g
               style="fill:#43b02a;stroke:none;stroke-width:0.88447386"
               id="g23">
              <path
                 style="stroke-width:0.88447386;stroke:none"
                 id="path25"
                 d="m 46.422448,23.326703 c -0.692872,-1.270266 -2.078617,-3.810798 -4.50367,-6.235852 -0.808351,3.464362 -0.808351,6.466809 -0.692873,7.968033 -0.115478,0 2.194096,-1.154788 5.196543,-1.732181 l 0,0 z" />
              <path
                 style="stroke-width:0.88447386;stroke:none"
                 id="path27" />
              <path
                 style="stroke-width:0.88447386;stroke:none"
                 id="path29" />
              <path
                 style="stroke-width:0.88447386;stroke:none"
                 id="path31" />
              <path
                 style="stroke-width:0.88447386;stroke:none"
                 id="path35"
                 d="m 35.682926,28.176809 c -1.270266,-1.039308 -3.695319,-2.886968 -7.275159,-4.388191 0.92383,3.810798 2.425053,6.582287 3.233404,7.968032 0,0.230957 1.616702,-1.732181 4.041755,-3.579841 l 0,0 z" />
              <path
                 style="stroke-width:0.88447386;stroke:none"
                 id="path37"
                 d="m 49.655853,19.862341 c 0.808351,-2.078617 2.309574,-5.081064 4.734627,-8.19899 -1.501223,-2.6560103 -3.57984,-5.312021 -6.35133,-7.6215956 -2.194095,2.7714895 -3.695319,5.5429789 -4.734628,8.3144686 3.117926,2.656011 5.081065,5.4275 6.351331,7.506117 l 0,0 z" />
              <path
                 style="stroke-width:0.88447386;stroke:none"
                 id="path39"
                 d="m 28.292288,36.491278 0,0 c -1.84766,-0.346437 -5.542979,-0.92383 -9.815692,-0.577394 2.540532,3.57984 5.4275,5.889415 7.044203,6.928724 -0.115479,0.115478 0.808351,-3.002447 2.771489,-6.35133 l 0,0 z" />
              <path
                 style="stroke-width:0.88447386;stroke:none"
                 id="path43"
                 d="m 11.085958,48.96298 c 4.157234,-2.656011 8.083511,-3.810798 10.739521,-4.157234 -2.078617,-1.732181 -5.081064,-4.50367 -7.506117,-8.314468 -3.464362,0.692872 -7.0442022,2.078617 -10.3930853,4.388191 1.9631384,3.464362 4.5036704,6.120373 7.1596813,8.083511 l 0,0 z" />
              <path
                 style="stroke-width:0.88447386;stroke:none"
                 id="path45"
                 d="m 24.366011,47.923672 c -1.616702,0.115478 -5.658457,0.461915 -10.277606,3.233404 4.272712,2.656011 8.314468,3.926277 10.277606,4.388192 l 0,0 c -0.346436,-2.540532 -0.346436,-5.196543 0,-7.621596 l 0,0 0,0 z" />
              <path
                 style="stroke-width:0.88447386;stroke:none"
                 id="path47"
                 d="m 38.10798,13.857447 c -2.540532,-1.732181 -5.773937,-3.233404 -9.815692,-4.157234 -0.808351,3.464362 -0.92383,6.697766 -0.692872,9.469256 3.926276,1.270266 6.928723,3.117925 9.00734,4.619149 0,-2.309575 0.346436,-5.889415 1.501224,-9.931171 l 0,0 z" />
              <path
                 style="stroke-width:0.88447386;stroke:none"
                 id="path49"
                 d="m 73.675428,5.4275001 c 0,0 3.233404,9.9311709 3.348883,15.0122349 -3.926277,0.923829 -7.390639,2.309574 -11.201437,5.542978 2.078617,1.039309 3.926277,2.309575 5.658458,3.810798 1.847659,1.616703 3.57984,2.309575 6.004894,1.154788 1.385744,-0.92383 9.122819,-8.891862 9.93117,-9.931171 1.84766,-1.963138 1.385745,-5.196542 -0.577394,-6.697766 C 81.989896,9.8156918 73.675428,5.4275001 73.675428,5.4275001 l 0,0 z" />
              <path
                 style="stroke-width:0.88447386;stroke:none"
                 id="path51"
                 d="M 1.9631383,37.646065 C 5.4275001,35.33649 8.8918619,33.835267 12.356224,33.026916 10.855,29.90899 9.8156918,26.32915 9.5847343,22.171915 6.2358512,26.906543 3.5798405,32.218565 1.9631383,37.646065 l 0,0 z" />
              <path
                 style="stroke-width:0.88447386;stroke:none"
                 id="path55"
                 d="m 27.368458,32.565001 c -1.154787,-2.194096 -2.656011,-5.773936 -3.464362,-10.162128 -3.117925,-0.692872 -6.582287,-1.039309 -10.624042,-0.461915 0.230957,4.041755 1.385744,7.506117 2.886968,10.508564 4.619149,-0.692872 8.545425,-0.346436 11.201436,0.115479 l 0,0 z" />
              <path
                 style="stroke-width:0.88447386;stroke:none"
                 id="path57" />
              <path
                 style="stroke-width:0.88447386;stroke:none"
                 id="path59"
                 d="m 13.280054,17.783724 c 3.695319,-0.461915 7.159681,-0.230958 10.162127,0.346436 -0.115478,-2.886968 0.115479,-6.004894 0.808352,-9.3537768 1.963138,-1.1547872 3.926276,-2.1940958 6.004893,-3.1179256 3.69532,0.9238298 6.697766,2.3095745 9.238298,3.9262767 1.154788,-2.6560107 2.656011,-5.3120214 4.734628,-7.9680321 -10.508564,1.6167021 -20.439734,6.2358512 -28.06133,13.3955328 -2.425053,2.194095 -4.619149,4.734627 -6.5822877,7.390638 1.1547877,-1.732181 2.4250537,-3.233404 3.6953197,-4.619149 l 0,0 z" />
              <path
                 style="stroke-width:0.88447386;stroke:none"
                 id="path61" />
              <path
                 style="stroke-width:0.88447386;stroke:none"
                 id="path63" />
              <path
                 style="stroke-width:0.88447386;stroke:none"
                 id="path65" />
              <path
                 style="stroke-width:0.88447386;stroke:none"
                 id="path67"
                 d="m 1.3857447,39.955639 c 0.2309575,-0.808351 0.3464362,-1.501223 0.5773936,-2.309574 -0.2309574,0.808351 -0.4619149,1.616702 -0.5773936,2.309574 l 0,0 z" />
              <path
                 style="stroke-width:0.88447386;stroke:none"
                 id="path69" />
              <path
                 style="stroke-width:0.88447386;stroke:none"
                 id="path71"
                 d="M 8.3144683,51.041597 C 5.6584576,48.847501 3.0024469,45.960533 0.92382981,42.380693 -0.23095745,48.270108 -0.23095745,54.505959 0.69287236,60.279895 2.8869682,56.23814 5.5429789,53.351172 8.3144683,51.041597 l 0,0 z" />
              <path
                 style="stroke-width:0.88447386;stroke:none"
                 id="path73" />
              <path
                 style="stroke-width:0.88447386;stroke:none"
                 id="path75"
                 d="M 85.916173,80.835109 C 78.641013,73.906385 77.139789,69.402715 71.019417,74.137343 54.275002,87.301917 30.139948,79.449364 25.058884,59.009629 24.135054,58.894151 17.668245,57.623885 11.085958,53.120214 7.8525534,55.660746 4.5036703,59.587023 1.7321809,65.245481 l -0.1154787,0 C 12.125266,104.97016 63.282342,114.20846 86.955481,89.380534 90.881758,85.2233 87.301917,82.336332 85.916173,80.835109 l 0,0 z" />
              <path
                 style="stroke-width:0.88447386;stroke:none"
                 id="path77" />
              <path
                 style="stroke-width:0.88447386;stroke:none"
                 id="path79"
                 d="m 68.247928,6.35133 c -3.348884,1.6167021 -6.004894,3.695319 -8.083511,5.889415 1.73218,3.695319 2.540532,7.044202 3.002446,9.122819 3.233405,-2.540532 6.466809,-4.041755 8.429948,-4.850106 C 71.365853,14.203883 70.557502,9.9311705 68.247928,6.35133 l 0,0 z" />
              <path
                 style="stroke-width:0.88447386;stroke:none"
                 id="path81" />
              <path
                 style="stroke-width:0.88447386;stroke:none"
                 id="path83"
                 d="m 56.700055,16.628937 c -1.616702,2.540532 -2.540532,4.850106 -3.002447,6.120372 l 0,0 c 1.616702,0.115479 3.233404,0.346436 4.850106,0.692872 -0.115478,-1.385744 -0.692872,-3.810798 -1.847659,-6.813244 l 0,0 z" />
              <path
                 style="stroke-width:0.88447386;stroke:none"
                 id="path85"
                 d="M 69.518193,3.810798 C 68.9408,3.5798405 68.247928,3.3488831 67.670534,3.2334043 68.363406,3.3488831 68.9408,3.5798405 69.518193,3.810798 l 0,0 z" />
              <path
                 style="stroke-width:0.88447386;stroke:none"
                 id="path87"
                 d="M 57.739363,7.8525534 C 59.81798,5.8894151 62.243034,4.0417554 65.245481,2.4250533 60.972768,1.3857447 56.584576,0.92382981 51.849948,0.92382981 54.275002,3.1179256 56.23814,5.5429789 57.739363,7.8525534 l 0,0 z" />
              <path
                 style="stroke-width:0.88447386;stroke:none"
                 id="path89" />
            </g>
            <g
               transform="translate(8.083511,62.358512)"
               id="g91">
              <g
                 id="g99-Clipped">
                <mask
                   fill="white"
                   id="mask-2">
                  <use
                     height="100%"
                     width="100%"
                     y="0"
                     x="0"
                     id="use52"
                     xlink:href="#path-1" />
                </mask>
                <g
                   id="SVGID_2_" />
                <g
                   mask="url(#mask-2)"
                   id="g99">
                  <g
                     id="g56"
                     transform="translate(-9.238298,-63.5133)">
                    <g
                       id="rect107-Clipped">
                      <mask
                         fill="white"
                         id="mask-4">
                        <use
                           height="100%"
                           width="100%"
                           y="0"
                           x="0"
                           id="use60"
                           xlink:href="#path-3" />
                      </mask>
                      <g
                         id="SVGID_4_" />
                      <rect
                         style="fill:#ffffff;stroke:#2db24a;stroke-width:0.88447386"
                         height="49.655853"
                         width="88.341225"
                         y="56.122662"
                         x="2.6560097"
                         mask="url(#mask-4)"
                         id="rect107" />
                    </g>
                    <g
                       id="use109">
                      <rect
                         style="stroke:#2db24a;stroke-width:0.88447386"
                         height="103.93085"
                         width="90.535324"
                         y="0.57739365"
                         x="0.46191722"
                         id="rect65" />
                    </g>
                  </g>
                </g>
              </g>
              <g
                 style="stroke:none;stroke-width:0.88447386;fill:#ffffff;stroke-opacity:1"
                 id="use111">
                <path
                   style="stroke-width:0.88447386;fill:#ffffff;stroke:none;stroke-opacity:1"
                   id="path68"
                   d="m 12.125266,1.9631383 c 3.69532,9.8156917 16.628937,22.8647877 32.565001,22.8647877 8.776383,0 16.744416,-3.117925 22.980267,-8.429947 0.461915,-0.230957 4.734628,4.619149 6.466809,6.466809 0.346436,0.461915 0.346436,0.577393 0.346436,0.577393 C 53.46665,41.803299 17.783724,39.147288 0.92382981,7.3906385 2.3095745,2.7714894 4.2727129,0 4.2727129,0 8.7763832,1.8476596 12.125266,1.9631383 12.125266,1.9631383 l 0,0 z" />
              </g>
            </g>
          </g>
        </g>
      </g>
    </g>
  </g>
</svg>
